<mxfile host="app.diagrams.net" agent="Mozilla/5.0 (Windows NT 10.0; Win64; x64; rv:136.0) Gecko/20100101 Firefox/136.0" version="26.1.3">
  <diagram name="Page-1" id="YgvPg4O-k4wSMei7GNgO">
    <mxGraphModel dx="2412" dy="846" grid="1" gridSize="10" guides="1" tooltips="1" connect="1" arrows="1" fold="1" page="1" pageScale="1" pageWidth="850" pageHeight="1100" math="0" shadow="0">
      <root>
        <mxCell id="0" />
        <mxCell id="1" parent="0" />
        <mxCell id="-go9ZOhl8I2pQ6mJtvfQ-1" value="MARCADORES" style="text;html=1;align=center;verticalAlign=middle;whiteSpace=wrap;rounded=0;fontSize=24;" parent="1" vertex="1">
          <mxGeometry x="338" y="535" width="175" height="30" as="geometry" />
        </mxCell>
        <mxCell id="sEJXaiph_9o6hNobzsxq-35" style="edgeStyle=orthogonalEdgeStyle;rounded=0;orthogonalLoop=1;jettySize=auto;html=1;exitX=0;exitY=0.5;exitDx=0;exitDy=0;entryX=1;entryY=0.5;entryDx=0;entryDy=0;" edge="1" parent="1" source="-go9ZOhl8I2pQ6mJtvfQ-3" target="sEJXaiph_9o6hNobzsxq-33">
          <mxGeometry relative="1" as="geometry" />
        </mxCell>
        <mxCell id="sEJXaiph_9o6hNobzsxq-36" style="edgeStyle=orthogonalEdgeStyle;rounded=0;orthogonalLoop=1;jettySize=auto;html=1;exitX=0;exitY=0.5;exitDx=0;exitDy=0;entryX=1;entryY=0.5;entryDx=0;entryDy=0;" edge="1" parent="1" source="-go9ZOhl8I2pQ6mJtvfQ-3" target="sEJXaiph_9o6hNobzsxq-34">
          <mxGeometry relative="1" as="geometry" />
        </mxCell>
        <mxCell id="-go9ZOhl8I2pQ6mJtvfQ-3" value="Contactos" style="rounded=0;whiteSpace=wrap;html=1;fillColor=#dae8fc;strokeColor=#6c8ebf;" parent="1" vertex="1">
          <mxGeometry x="160" y="520" width="120" height="60" as="geometry" />
        </mxCell>
        <mxCell id="-go9ZOhl8I2pQ6mJtvfQ-9" style="edgeStyle=orthogonalEdgeStyle;rounded=0;orthogonalLoop=1;jettySize=auto;html=1;exitX=1;exitY=0.5;exitDx=0;exitDy=0;entryX=0;entryY=0.5;entryDx=0;entryDy=0;" parent="1" source="-go9ZOhl8I2pQ6mJtvfQ-4" target="-go9ZOhl8I2pQ6mJtvfQ-5" edge="1">
          <mxGeometry relative="1" as="geometry" />
        </mxCell>
        <mxCell id="-go9ZOhl8I2pQ6mJtvfQ-10" style="edgeStyle=orthogonalEdgeStyle;rounded=0;orthogonalLoop=1;jettySize=auto;html=1;exitX=1;exitY=0.5;exitDx=0;exitDy=0;entryX=0;entryY=0.5;entryDx=0;entryDy=0;" parent="1" source="-go9ZOhl8I2pQ6mJtvfQ-4" target="-go9ZOhl8I2pQ6mJtvfQ-7" edge="1">
          <mxGeometry relative="1" as="geometry" />
        </mxCell>
        <mxCell id="-go9ZOhl8I2pQ6mJtvfQ-11" style="edgeStyle=orthogonalEdgeStyle;rounded=0;orthogonalLoop=1;jettySize=auto;html=1;exitX=1;exitY=0.5;exitDx=0;exitDy=0;entryX=0;entryY=0.5;entryDx=0;entryDy=0;" parent="1" source="-go9ZOhl8I2pQ6mJtvfQ-4" target="-go9ZOhl8I2pQ6mJtvfQ-6" edge="1">
          <mxGeometry relative="1" as="geometry" />
        </mxCell>
        <mxCell id="-go9ZOhl8I2pQ6mJtvfQ-12" style="edgeStyle=orthogonalEdgeStyle;rounded=0;orthogonalLoop=1;jettySize=auto;html=1;exitX=1;exitY=0.5;exitDx=0;exitDy=0;entryX=0;entryY=0.5;entryDx=0;entryDy=0;" parent="1" source="-go9ZOhl8I2pQ6mJtvfQ-4" target="-go9ZOhl8I2pQ6mJtvfQ-8" edge="1">
          <mxGeometry relative="1" as="geometry" />
        </mxCell>
        <mxCell id="-go9ZOhl8I2pQ6mJtvfQ-13" value="&lt;div&gt;Tipo&lt;/div&gt;" style="edgeLabel;html=1;align=center;verticalAlign=middle;resizable=0;points=[];" parent="-go9ZOhl8I2pQ6mJtvfQ-12" vertex="1" connectable="0">
          <mxGeometry x="-0.8629" y="3" relative="1" as="geometry">
            <mxPoint y="2" as="offset" />
          </mxGeometry>
        </mxCell>
        <mxCell id="-go9ZOhl8I2pQ6mJtvfQ-4" value="&lt;div&gt;PublicaciÃ³n&lt;/div&gt;" style="rounded=0;whiteSpace=wrap;html=1;fillColor=#dae8fc;strokeColor=#6c8ebf;" parent="1" vertex="1">
          <mxGeometry x="570" y="520" width="120" height="60" as="geometry" />
        </mxCell>
        <mxCell id="sEJXaiph_9o6hNobzsxq-20" style="rounded=0;orthogonalLoop=1;jettySize=auto;html=1;exitX=1;exitY=0.5;exitDx=0;exitDy=0;entryX=0;entryY=0.5;entryDx=0;entryDy=0;fillColor=#ffe6cc;strokeColor=#d79b00;" edge="1" parent="1" source="-go9ZOhl8I2pQ6mJtvfQ-5" target="sEJXaiph_9o6hNobzsxq-2">
          <mxGeometry relative="1" as="geometry" />
        </mxCell>
        <mxCell id="sEJXaiph_9o6hNobzsxq-21" style="rounded=0;orthogonalLoop=1;jettySize=auto;html=1;exitX=1;exitY=0.5;exitDx=0;exitDy=0;entryX=0;entryY=0.5;entryDx=0;entryDy=0;fillColor=#ffe6cc;strokeColor=#d79b00;" edge="1" parent="1" source="-go9ZOhl8I2pQ6mJtvfQ-5" target="sEJXaiph_9o6hNobzsxq-1">
          <mxGeometry relative="1" as="geometry" />
        </mxCell>
        <mxCell id="sEJXaiph_9o6hNobzsxq-22" style="rounded=0;orthogonalLoop=1;jettySize=auto;html=1;exitX=1;exitY=0.5;exitDx=0;exitDy=0;entryX=0;entryY=0.5;entryDx=0;entryDy=0;fillColor=#ffe6cc;strokeColor=#d79b00;" edge="1" parent="1" source="-go9ZOhl8I2pQ6mJtvfQ-5" target="sEJXaiph_9o6hNobzsxq-3">
          <mxGeometry relative="1" as="geometry" />
        </mxCell>
        <mxCell id="sEJXaiph_9o6hNobzsxq-23" style="rounded=0;orthogonalLoop=1;jettySize=auto;html=1;exitX=1;exitY=0.5;exitDx=0;exitDy=0;entryX=0;entryY=0.5;entryDx=0;entryDy=0;fillColor=#ffe6cc;strokeColor=#d79b00;" edge="1" parent="1" source="-go9ZOhl8I2pQ6mJtvfQ-5" target="sEJXaiph_9o6hNobzsxq-5">
          <mxGeometry relative="1" as="geometry" />
        </mxCell>
        <mxCell id="sEJXaiph_9o6hNobzsxq-24" style="rounded=0;orthogonalLoop=1;jettySize=auto;html=1;exitX=1;exitY=0.5;exitDx=0;exitDy=0;entryX=0;entryY=0.5;entryDx=0;entryDy=0;fillColor=#ffe6cc;strokeColor=#d79b00;" edge="1" parent="1" source="-go9ZOhl8I2pQ6mJtvfQ-5" target="sEJXaiph_9o6hNobzsxq-6">
          <mxGeometry relative="1" as="geometry" />
        </mxCell>
        <mxCell id="-go9ZOhl8I2pQ6mJtvfQ-5" value="&lt;div&gt;Perdido&lt;/div&gt;" style="rounded=0;whiteSpace=wrap;html=1;fillColor=#fff2cc;strokeColor=#d6b656;" parent="1" vertex="1">
          <mxGeometry x="800" y="440" width="120" height="60" as="geometry" />
        </mxCell>
        <mxCell id="sEJXaiph_9o6hNobzsxq-25" style="rounded=0;orthogonalLoop=1;jettySize=auto;html=1;exitX=1;exitY=0.5;exitDx=0;exitDy=0;entryX=0;entryY=0.5;entryDx=0;entryDy=0;fillColor=#d5e8d4;strokeColor=#82b366;" edge="1" parent="1" source="-go9ZOhl8I2pQ6mJtvfQ-6" target="sEJXaiph_9o6hNobzsxq-1">
          <mxGeometry relative="1" as="geometry" />
        </mxCell>
        <mxCell id="sEJXaiph_9o6hNobzsxq-26" style="rounded=0;orthogonalLoop=1;jettySize=auto;html=1;exitX=1;exitY=0.5;exitDx=0;exitDy=0;entryX=0;entryY=0.5;entryDx=0;entryDy=0;fillColor=#d5e8d4;strokeColor=#82b366;" edge="1" parent="1" source="-go9ZOhl8I2pQ6mJtvfQ-6" target="sEJXaiph_9o6hNobzsxq-3">
          <mxGeometry relative="1" as="geometry" />
        </mxCell>
        <mxCell id="sEJXaiph_9o6hNobzsxq-27" style="rounded=0;orthogonalLoop=1;jettySize=auto;html=1;exitX=1;exitY=0.5;exitDx=0;exitDy=0;entryX=0;entryY=0.5;entryDx=0;entryDy=0;fillColor=#d5e8d4;strokeColor=#82b366;" edge="1" parent="1" source="-go9ZOhl8I2pQ6mJtvfQ-6" target="sEJXaiph_9o6hNobzsxq-5">
          <mxGeometry relative="1" as="geometry" />
        </mxCell>
        <mxCell id="sEJXaiph_9o6hNobzsxq-28" style="rounded=0;orthogonalLoop=1;jettySize=auto;html=1;exitX=1;exitY=0.5;exitDx=0;exitDy=0;fillColor=#d5e8d4;strokeColor=#82b366;entryX=0;entryY=0.5;entryDx=0;entryDy=0;" edge="1" parent="1" source="-go9ZOhl8I2pQ6mJtvfQ-6" target="sEJXaiph_9o6hNobzsxq-6">
          <mxGeometry relative="1" as="geometry" />
        </mxCell>
        <mxCell id="-go9ZOhl8I2pQ6mJtvfQ-6" value="&lt;div&gt;Encontrado&lt;/div&gt;" style="rounded=0;whiteSpace=wrap;html=1;fillColor=#fff2cc;strokeColor=#d6b656;" parent="1" vertex="1">
          <mxGeometry x="800" y="600" width="120" height="60" as="geometry" />
        </mxCell>
        <mxCell id="-go9ZOhl8I2pQ6mJtvfQ-16" style="edgeStyle=orthogonalEdgeStyle;rounded=0;orthogonalLoop=1;jettySize=auto;html=1;exitX=1;exitY=0.5;exitDx=0;exitDy=0;entryX=0;entryY=0.5;entryDx=0;entryDy=0;" parent="1" source="-go9ZOhl8I2pQ6mJtvfQ-7" target="-go9ZOhl8I2pQ6mJtvfQ-15" edge="1">
          <mxGeometry relative="1" as="geometry" />
        </mxCell>
        <mxCell id="-go9ZOhl8I2pQ6mJtvfQ-7" value="Reporte de maltrato" style="rounded=0;whiteSpace=wrap;html=1;fillColor=#fff2cc;strokeColor=#d6b656;" parent="1" vertex="1">
          <mxGeometry x="800" y="280" width="120" height="60" as="geometry" />
        </mxCell>
        <mxCell id="sEJXaiph_9o6hNobzsxq-29" style="rounded=0;orthogonalLoop=1;jettySize=auto;html=1;exitX=1;exitY=0.5;exitDx=0;exitDy=0;entryX=0;entryY=0.5;entryDx=0;entryDy=0;fillColor=#f8cecc;strokeColor=#b85450;" edge="1" parent="1" source="-go9ZOhl8I2pQ6mJtvfQ-8" target="sEJXaiph_9o6hNobzsxq-1">
          <mxGeometry relative="1" as="geometry" />
        </mxCell>
        <mxCell id="sEJXaiph_9o6hNobzsxq-30" style="rounded=0;orthogonalLoop=1;jettySize=auto;html=1;exitX=1;exitY=0.5;exitDx=0;exitDy=0;entryX=0;entryY=0.5;entryDx=0;entryDy=0;fillColor=#f8cecc;strokeColor=#b85450;" edge="1" parent="1" source="-go9ZOhl8I2pQ6mJtvfQ-8" target="sEJXaiph_9o6hNobzsxq-3">
          <mxGeometry relative="1" as="geometry" />
        </mxCell>
        <mxCell id="sEJXaiph_9o6hNobzsxq-31" style="rounded=0;orthogonalLoop=1;jettySize=auto;html=1;exitX=1;exitY=0.5;exitDx=0;exitDy=0;entryX=0;entryY=0.5;entryDx=0;entryDy=0;fillColor=#f8cecc;strokeColor=#b85450;" edge="1" parent="1" source="-go9ZOhl8I2pQ6mJtvfQ-8" target="sEJXaiph_9o6hNobzsxq-5">
          <mxGeometry relative="1" as="geometry" />
        </mxCell>
        <mxCell id="sEJXaiph_9o6hNobzsxq-32" style="rounded=0;orthogonalLoop=1;jettySize=auto;html=1;exitX=1;exitY=0.5;exitDx=0;exitDy=0;entryX=0;entryY=0.5;entryDx=0;entryDy=0;fillColor=#f8cecc;strokeColor=#b85450;" edge="1" parent="1" source="-go9ZOhl8I2pQ6mJtvfQ-8" target="sEJXaiph_9o6hNobzsxq-6">
          <mxGeometry relative="1" as="geometry" />
        </mxCell>
        <mxCell id="-go9ZOhl8I2pQ6mJtvfQ-8" value="&lt;div&gt;Emergencia&lt;/div&gt;" style="rounded=0;whiteSpace=wrap;html=1;fillColor=#fff2cc;strokeColor=#d6b656;" parent="1" vertex="1">
          <mxGeometry x="800" y="760" width="120" height="60" as="geometry" />
        </mxCell>
        <mxCell id="-go9ZOhl8I2pQ6mJtvfQ-20" style="rounded=0;orthogonalLoop=1;jettySize=auto;html=1;exitX=1;exitY=0.5;exitDx=0;exitDy=0;entryX=0;entryY=0.5;entryDx=0;entryDy=0;" parent="1" source="-go9ZOhl8I2pQ6mJtvfQ-15" target="-go9ZOhl8I2pQ6mJtvfQ-18" edge="1">
          <mxGeometry relative="1" as="geometry" />
        </mxCell>
        <mxCell id="-go9ZOhl8I2pQ6mJtvfQ-23" style="rounded=0;orthogonalLoop=1;jettySize=auto;html=1;exitX=1;exitY=0.5;exitDx=0;exitDy=0;entryX=0;entryY=0.5;entryDx=0;entryDy=0;" parent="1" source="-go9ZOhl8I2pQ6mJtvfQ-15" target="-go9ZOhl8I2pQ6mJtvfQ-19" edge="1">
          <mxGeometry relative="1" as="geometry" />
        </mxCell>
        <mxCell id="-go9ZOhl8I2pQ6mJtvfQ-15" value="Zona del maltrato" style="rounded=0;whiteSpace=wrap;html=1;fillColor=#d5e8d4;strokeColor=#82b366;" parent="1" vertex="1">
          <mxGeometry x="1000" y="295" width="120" height="30" as="geometry" />
        </mxCell>
        <mxCell id="-go9ZOhl8I2pQ6mJtvfQ-18" value="&lt;div&gt;Coordenadas&lt;/div&gt;" style="rounded=1;whiteSpace=wrap;html=1;absoluteArcSize=1;arcSize=14;strokeWidth=1;glass=0;" parent="1" vertex="1">
          <mxGeometry x="1140" y="297.5" width="100" height="25" as="geometry" />
        </mxCell>
        <mxCell id="-go9ZOhl8I2pQ6mJtvfQ-19" value="Colonia / DelegaciÃ³n / RegiÃ³n" style="rounded=1;whiteSpace=wrap;html=1;absoluteArcSize=1;arcSize=14;strokeWidth=1;glass=0;" parent="1" vertex="1">
          <mxGeometry x="1140" y="340" width="180" height="25" as="geometry" />
        </mxCell>
        <mxCell id="sEJXaiph_9o6hNobzsxq-1" value="&lt;div&gt;Foto&lt;/div&gt;" style="rounded=0;whiteSpace=wrap;html=1;fillColor=#d5e8d4;strokeColor=#82b366;" vertex="1" parent="1">
          <mxGeometry x="1010" y="550" width="120" height="30" as="geometry" />
        </mxCell>
        <mxCell id="sEJXaiph_9o6hNobzsxq-2" value="Nombre mascota" style="rounded=0;whiteSpace=wrap;html=1;fillColor=#d5e8d4;strokeColor=#82b366;" vertex="1" parent="1">
          <mxGeometry x="1010" y="490" width="120" height="30" as="geometry" />
        </mxCell>
        <mxCell id="sEJXaiph_9o6hNobzsxq-17" style="edgeStyle=orthogonalEdgeStyle;rounded=0;orthogonalLoop=1;jettySize=auto;html=1;exitX=1;exitY=0.5;exitDx=0;exitDy=0;entryX=0;entryY=0.5;entryDx=0;entryDy=0;" edge="1" parent="1" source="sEJXaiph_9o6hNobzsxq-3" target="sEJXaiph_9o6hNobzsxq-16">
          <mxGeometry relative="1" as="geometry" />
        </mxCell>
        <mxCell id="sEJXaiph_9o6hNobzsxq-18" style="edgeStyle=orthogonalEdgeStyle;rounded=0;orthogonalLoop=1;jettySize=auto;html=1;exitX=1;exitY=0.5;exitDx=0;exitDy=0;entryX=0;entryY=0.5;entryDx=0;entryDy=0;" edge="1" parent="1" source="sEJXaiph_9o6hNobzsxq-3" target="sEJXaiph_9o6hNobzsxq-15">
          <mxGeometry relative="1" as="geometry" />
        </mxCell>
        <mxCell id="sEJXaiph_9o6hNobzsxq-19" style="edgeStyle=orthogonalEdgeStyle;rounded=0;orthogonalLoop=1;jettySize=auto;html=1;exitX=1;exitY=0.5;exitDx=0;exitDy=0;entryX=0;entryY=0.5;entryDx=0;entryDy=0;" edge="1" parent="1" source="sEJXaiph_9o6hNobzsxq-3" target="sEJXaiph_9o6hNobzsxq-14">
          <mxGeometry relative="1" as="geometry" />
        </mxCell>
        <mxCell id="sEJXaiph_9o6hNobzsxq-3" value="&lt;div&gt;Tags&lt;/div&gt;" style="rounded=0;whiteSpace=wrap;html=1;fillColor=#d5e8d4;strokeColor=#82b366;" vertex="1" parent="1">
          <mxGeometry x="1010" y="610" width="120" height="30" as="geometry" />
        </mxCell>
        <mxCell id="sEJXaiph_9o6hNobzsxq-11" style="edgeStyle=orthogonalEdgeStyle;rounded=0;orthogonalLoop=1;jettySize=auto;html=1;exitX=1;exitY=0.5;exitDx=0;exitDy=0;entryX=0;entryY=0.5;entryDx=0;entryDy=0;" edge="1" parent="1" source="sEJXaiph_9o6hNobzsxq-5" target="sEJXaiph_9o6hNobzsxq-7">
          <mxGeometry relative="1" as="geometry" />
        </mxCell>
        <mxCell id="sEJXaiph_9o6hNobzsxq-12" style="edgeStyle=orthogonalEdgeStyle;rounded=0;orthogonalLoop=1;jettySize=auto;html=1;exitX=1;exitY=0.5;exitDx=0;exitDy=0;entryX=0;entryY=0.5;entryDx=0;entryDy=0;" edge="1" parent="1" source="sEJXaiph_9o6hNobzsxq-5" target="sEJXaiph_9o6hNobzsxq-8">
          <mxGeometry relative="1" as="geometry" />
        </mxCell>
        <mxCell id="sEJXaiph_9o6hNobzsxq-13" style="edgeStyle=orthogonalEdgeStyle;rounded=0;orthogonalLoop=1;jettySize=auto;html=1;exitX=1;exitY=0.5;exitDx=0;exitDy=0;entryX=0;entryY=0.5;entryDx=0;entryDy=0;" edge="1" parent="1" source="sEJXaiph_9o6hNobzsxq-5" target="sEJXaiph_9o6hNobzsxq-9">
          <mxGeometry relative="1" as="geometry" />
        </mxCell>
        <mxCell id="sEJXaiph_9o6hNobzsxq-5" value="UbicaciÃ³n" style="rounded=0;whiteSpace=wrap;html=1;fillColor=#d5e8d4;strokeColor=#82b366;" vertex="1" parent="1">
          <mxGeometry x="1010" y="670" width="120" height="30" as="geometry" />
        </mxCell>
        <mxCell id="sEJXaiph_9o6hNobzsxq-6" value="DescripciÃ³n" style="rounded=0;whiteSpace=wrap;html=1;fillColor=#d5e8d4;strokeColor=#82b366;" vertex="1" parent="1">
          <mxGeometry x="1010" y="730" width="120" height="30" as="geometry" />
        </mxCell>
        <mxCell id="sEJXaiph_9o6hNobzsxq-7" value="&lt;div&gt;Coordenadas&lt;/div&gt;" style="rounded=1;whiteSpace=wrap;html=1;absoluteArcSize=1;arcSize=14;strokeWidth=1;glass=0;" vertex="1" parent="1">
          <mxGeometry x="1200" y="672.5" width="180" height="25" as="geometry" />
        </mxCell>
        <mxCell id="sEJXaiph_9o6hNobzsxq-8" value="Colonia / DelegaciÃ³n / RegiÃ³n" style="rounded=1;whiteSpace=wrap;html=1;absoluteArcSize=1;arcSize=14;strokeWidth=1;glass=0;" vertex="1" parent="1">
          <mxGeometry x="1200" y="705" width="180" height="25" as="geometry" />
        </mxCell>
        <mxCell id="sEJXaiph_9o6hNobzsxq-9" value="&lt;div&gt;Radio de alcance&lt;/div&gt;" style="rounded=1;whiteSpace=wrap;html=1;absoluteArcSize=1;arcSize=14;strokeWidth=1;glass=0;" vertex="1" parent="1">
          <mxGeometry x="1200" y="735" width="180" height="25" as="geometry" />
        </mxCell>
        <mxCell id="sEJXaiph_9o6hNobzsxq-14" value="Especie" style="rounded=1;whiteSpace=wrap;html=1;absoluteArcSize=1;arcSize=14;strokeWidth=1;glass=0;" vertex="1" parent="1">
          <mxGeometry x="1200" y="550" width="180" height="25" as="geometry" />
        </mxCell>
        <mxCell id="sEJXaiph_9o6hNobzsxq-15" value="Raza" style="rounded=1;whiteSpace=wrap;html=1;absoluteArcSize=1;arcSize=14;strokeWidth=1;glass=0;" vertex="1" parent="1">
          <mxGeometry x="1200" y="582.5" width="180" height="25" as="geometry" />
        </mxCell>
        <mxCell id="sEJXaiph_9o6hNobzsxq-16" value="Color" style="rounded=1;whiteSpace=wrap;html=1;absoluteArcSize=1;arcSize=14;strokeWidth=1;glass=0;" vertex="1" parent="1">
          <mxGeometry x="1200" y="612.5" width="180" height="25" as="geometry" />
        </mxCell>
        <mxCell id="sEJXaiph_9o6hNobzsxq-40" style="rounded=0;orthogonalLoop=1;jettySize=auto;html=1;exitX=0;exitY=0.5;exitDx=0;exitDy=0;entryX=1;entryY=0.5;entryDx=0;entryDy=0;fillColor=#d5e8d4;strokeColor=#82b366;" edge="1" parent="1" source="sEJXaiph_9o6hNobzsxq-33" target="sEJXaiph_9o6hNobzsxq-37">
          <mxGeometry relative="1" as="geometry" />
        </mxCell>
        <mxCell id="sEJXaiph_9o6hNobzsxq-41" style="rounded=0;orthogonalLoop=1;jettySize=auto;html=1;exitX=0;exitY=0.5;exitDx=0;exitDy=0;entryX=1;entryY=0.5;entryDx=0;entryDy=0;fillColor=#d5e8d4;strokeColor=#82b366;" edge="1" parent="1" source="sEJXaiph_9o6hNobzsxq-33" target="sEJXaiph_9o6hNobzsxq-38">
          <mxGeometry relative="1" as="geometry" />
        </mxCell>
        <mxCell id="sEJXaiph_9o6hNobzsxq-42" style="rounded=0;orthogonalLoop=1;jettySize=auto;html=1;exitX=0;exitY=0.5;exitDx=0;exitDy=0;entryX=1;entryY=0.5;entryDx=0;entryDy=0;fillColor=#d5e8d4;strokeColor=#82b366;" edge="1" parent="1" source="sEJXaiph_9o6hNobzsxq-33" target="sEJXaiph_9o6hNobzsxq-39">
          <mxGeometry relative="1" as="geometry" />
        </mxCell>
        <mxCell id="sEJXaiph_9o6hNobzsxq-33" value="Veterinario" style="rounded=0;whiteSpace=wrap;html=1;fillColor=#fff2cc;strokeColor=#d6b656;" vertex="1" parent="1">
          <mxGeometry x="-80" y="440" width="120" height="60" as="geometry" />
        </mxCell>
        <mxCell id="sEJXaiph_9o6hNobzsxq-43" style="rounded=0;orthogonalLoop=1;jettySize=auto;html=1;exitX=0;exitY=0.5;exitDx=0;exitDy=0;entryX=1;entryY=0.5;entryDx=0;entryDy=0;fillColor=#f8cecc;strokeColor=#b85450;" edge="1" parent="1" source="sEJXaiph_9o6hNobzsxq-34" target="sEJXaiph_9o6hNobzsxq-38">
          <mxGeometry relative="1" as="geometry" />
        </mxCell>
        <mxCell id="sEJXaiph_9o6hNobzsxq-44" style="rounded=0;orthogonalLoop=1;jettySize=auto;html=1;exitX=0;exitY=0.5;exitDx=0;exitDy=0;entryX=1;entryY=0.5;entryDx=0;entryDy=0;fillColor=#f8cecc;strokeColor=#b85450;" edge="1" parent="1" source="sEJXaiph_9o6hNobzsxq-34" target="sEJXaiph_9o6hNobzsxq-39">
          <mxGeometry relative="1" as="geometry" />
        </mxCell>
        <mxCell id="sEJXaiph_9o6hNobzsxq-34" value="Centro de Rescate" style="rounded=0;whiteSpace=wrap;html=1;fillColor=#fff2cc;strokeColor=#d6b656;" vertex="1" parent="1">
          <mxGeometry x="-80" y="600" width="120" height="60" as="geometry" />
        </mxCell>
        <mxCell id="sEJXaiph_9o6hNobzsxq-37" value="Servicios" style="rounded=0;whiteSpace=wrap;html=1;fillColor=#d5e8d4;strokeColor=#82b366;" vertex="1" parent="1">
          <mxGeometry x="-280" y="405" width="120" height="30" as="geometry" />
        </mxCell>
        <mxCell id="sEJXaiph_9o6hNobzsxq-38" value="Nombre" style="rounded=0;whiteSpace=wrap;html=1;fillColor=#d5e8d4;strokeColor=#82b366;" vertex="1" parent="1">
          <mxGeometry x="-280" y="535" width="120" height="30" as="geometry" />
        </mxCell>
        <mxCell id="sEJXaiph_9o6hNobzsxq-39" value="&lt;div&gt;Foto portada&lt;/div&gt;" style="rounded=0;whiteSpace=wrap;html=1;fillColor=#d5e8d4;strokeColor=#82b366;" vertex="1" parent="1">
          <mxGeometry x="-280" y="665" width="120" height="30" as="geometry" />
        </mxCell>
      </root>
    </mxGraphModel>
  </diagram>
</mxfile>
